<?xml version="1.0" encoding="utf-8"?>
<svg enable-background="new 0 0 100 100" height="200px" id="Your_Icon" version="1.1" viewBox="0 0 100 100" width="100px" xmlns="http://www.w3.org/2000/svg">
  <g>
    <g>
      <g>
        <g/>
      </g>
      <g/>
    </g>
  </g>
  <path d="M71.977,55.043c-0.217-0.216-0.877-0.876-3.26-0.876c-3.63,0-9.342,1.475-13.498,5.628  c-1.393,1.394-2.431,2.882-3.223,4.303v-9.226c0.543,0.146,1.18,0.226,1.924,0.226c3.668,0,9.153-1.783,13.139-5.77  c5.611-5.612,6.66-14.643,4.774-16.527c-0.21-0.211-0.852-0.853-3.135-0.853c-2.883,0-8.948,1.186-13.392,5.628  c-1.448,1.447-2.51,2.995-3.311,4.46v-5.356c2.71-1.893,6.636-8.31,6.636-14.482c0-7.687-5.401-12.883-7.707-13.409  c-0.148-0.033-0.303-0.051-0.461-0.051c-2.656,0-7.86,6.094-7.86,13.46c0,6.172,3.927,12.59,6.637,14.482V42.1  c-0.807-1.486-1.881-3.061-3.355-4.533c-4.459-4.46-10.532-5.649-13.418-5.649c-2.269,0-2.907,0.639-3.115,0.848  c-1.19,1.188-0.941,4.494-0.369,6.964c0.498,2.142,1.832,6.235,5.167,9.571c4,4.002,9.494,5.792,13.165,5.792h0.001  c0.744,0,1.381-0.081,1.924-0.229v9.848c-0.849-1.624-2.016-3.378-3.65-5.012c-4.609-4.609-10.821-5.84-13.765-5.84  c-1.503,0-2.508,0.276-3.073,0.841c-1.202,1.2-0.925,4.563-0.323,7.075c0.522,2.182,1.907,6.35,5.32,9.763  c4.132,4.133,9.758,5.982,13.5,5.983l0,0c0.773,0,1.437-0.083,1.991-0.244v12.75h2.755V77.348c0.562,0.147,1.214,0.229,1.98,0.229  c3.72,0,9.258-1.785,13.248-5.776C72.891,66.134,73.902,56.969,71.977,55.043z M57.255,39.524c3.806-3.805,8.983-4.821,11.443-4.821  c0.569,0,0.941,0.054,1.148,0.101c0.431,1.604-0.31,8.15-4.736,12.576c-3.409,3.41-8.191,4.963-11.19,4.963  c-0.837,0-1.283-0.128-1.436-0.197C51.875,51.003,52.398,44.379,57.255,39.524z M48.733,52.143  c-0.152,0.071-0.593,0.195-1.417,0.195c-3.001,0-7.792-1.56-11.217-4.985c-4.43-4.43-5.185-10.975-4.759-12.583  c0.205-0.046,0.57-0.097,1.128-0.097c2.462,0,7.648,1.02,11.471,4.842C48.796,44.373,49.338,50.996,48.733,52.143z M48.635,74.579  c-0.151,0.068-0.583,0.188-1.384,0.188l0,0c-3.071-0.001-7.996-1.62-11.552-5.177c-4.558-4.557-5.378-11.244-4.956-12.885  c0.199-0.043,0.552-0.091,1.084-0.091c2.346,0,7.835,1.053,11.817,5.032C48.637,66.642,49.242,73.41,48.635,74.579z M45.359,22.199  c0-5.964,3.919-10.302,5.044-10.688c1.05,0.468,5.474,4.296,5.474,10.688c0,5.549-3.772,10.907-5.258,12.138  C49.132,33.105,45.359,27.749,45.359,22.199z M65.277,69.854c-3.923,3.922-8.949,4.969-11.301,4.969  c-1.015,0-1.494-0.177-1.533-0.186c-0.691-1.001-0.308-7.863,4.724-12.894c3.808-3.807,9.052-4.821,11.55-4.821  c0.649,0,1.064,0.064,1.279,0.118C70.47,58.636,69.801,65.33,65.277,69.854z" style="fill: rgb(120, 162, 47);"/>
</svg>